# xmcd
#
# Track frame offsets: 
#        150
#        25050
#        43200
#        62389
#        84268
#        108189
#        134158
#        155687
#        173477
#
# Disc length: 2635 seconds
#
# Revision: 0
# Processed by: cddbd v1.5.2PL0 Copyright (c) Steve Scherf et al.
# Submitted via: ExactAudioCopy v1.0b1
#
DISCID=6b0a4909
DTITLE=Aleem Featuring Leroy Burgess - Casually Formal
DYEAR=1986
DGENRE=Rap
TTITLE0=Loves On Fire
TTITLE1=Two Faces
TTITLE2=Confusion
TTITLE3=Stay
TTITLE4=More Than A Million
TTITLE5=Think
TTITLE6=Fine Young Tender
TTITLE7=Dangerous
TTITLE8=Fine Young Tender (Dub Mix)
EXTD=
EXTT0=
EXTT1=
EXTT2=
EXTT3=
EXTT4=
EXTT5=
EXTT6=
EXTT7=
EXTT8=
PLAYORDER=
